# xmcd CD database file
#
# Track frame offsets:
#	150
#	21484
#	41845
#
# Disc length: 840 seconds
#
# Revision: 2
# Processed by: cddbd v1.5.1PL2 Copyright (c) Steve Scherf et al.
# Submitted via: CDex 1.51
#
DISCID=23034603
DTITLE=光永亮太 - Day by Day
DYEAR=2006
DGENRE=JPop
TTITLE0=Day by Day
TTITLE1=Over
TTITLE2=Day by Day(Less Vocal)
EXTD=YEAR: 2006
EXTT0=
EXTT1=
EXTT2=
PLAYORDER=
